<?xml version="1.0" standalone="no"?><!DOCTYPE svg PUBLIC "-//W3C//DTD SVG 1.1//EN" "http://www.w3.org/Graphics/SVG/1.1/DTD/svg11.dtd"><svg t="1746027992765" class="icon" viewBox="0 0 1024 1024" version="1.1" xmlns="http://www.w3.org/2000/svg" p-id="8235" xmlns:xlink="http://www.w3.org/1999/xlink" width="200" height="200"><path d="M406.588235 407.461647a79.435294 79.435294 0 0 1-79.435294 79.435294H79.435294A79.435294 79.435294 0 0 1 0 407.461647v-247.717647a79.435294 79.435294 0 0 1 79.435294-79.435294h247.717647A79.435294 79.435294 0 0 1 406.588235 159.744v247.717647zM406.588235 934.520471a79.435294 79.435294 0 0 1-79.435294 79.435294H79.435294A79.435294 79.435294 0 0 1 0 934.520471v-247.717647a79.435294 79.435294 0 0 1 79.435294-79.435295h247.717647A79.435294 79.435294 0 0 1 406.588235 686.802824v247.717647zM752.986353 532.992a78.863059 78.863059 0 0 1-56.169412-23.190588L515.328 328.282353a78.863059 78.863059 0 0 1-23.190588-56.169412c0-21.278118 8.237176-41.216 23.190588-56.169412L696.832 34.439529c14.953412-14.953412 34.891294-23.190588 56.169412-23.190588s41.216 8.237176 56.169412 23.190588L990.674824 215.943529a79.510588 79.510588 0 0 1 0 112.323765L809.155765 509.801412a78.863059 78.863059 0 0 1-56.169412 23.190588z m0-489.968941c-12.784941 0-24.741647 4.939294-33.701647 13.884235L537.795765 238.411294c-8.944941 8.944941-13.884235 20.916706-13.884236 33.701647s4.939294 24.741647 13.884236 33.701647l181.504 181.519059c17.904941 17.904941 49.498353 17.904941 67.403294 0l181.519059-181.519059a47.721412 47.721412 0 0 0 0-67.403294L786.688 56.907294a47.254588 47.254588 0 0 0-33.701647-13.884235zM933.647059 934.520471a79.435294 79.435294 0 0 1-79.435294 79.435294h-247.717647A79.435294 79.435294 0 0 1 527.058824 934.520471v-247.717647a79.435294 79.435294 0 0 1 79.435294-79.435295h247.717647A79.435294 79.435294 0 0 1 933.647059 686.802824v247.717647z" p-id="8236"></path></svg>